# xmcd
#
# Track frame offsets: 
#        150
#        13829
#        27900
#        39522
#        53056
#        66412
#        81687
#        96306
#        110371
#        124093
#        138933
#        149595
#        164762
#        178190
#        191646
#        208782
#        219895
#        233305
#        245915
#        265331
#        276509
#        287460
#        299548
#        312489
#        323164
#
# Disc length: 4548 seconds
#
# Revision: 2
# Processed by: cddbd v1.5.2PL0 Copyright (c) Steve Scherf et al.
# Submitted via: ExactAudioCopyFreeDBPlugin 1.0
#
DISCID=9211c219
DTITLE=Etta James - At Last The Best Of Etta James
DYEAR=2012
DGENRE=Sout
TTITLE0=At Last
TTITLE1=I Just Want To Make Love To You
TTITLE2=I'd Rather Go Blind
TTITLE3=Do Right Woman, Do Right Man
TTITLE4=If I Can't Have You
TTITLE5=You Can Leave Your Hat On
TTITLE6=W.O.M.A.N.
TTITLE7=Stormy Weather (Keeps Rainin' All The Time)
TTITLE8=Two Sides (To Every Story)
TTITLE9=A Sunday Kind Of Love
TTITLE10=Tell Mama
TTITLE11=Lovin' You More Every Day
TTITLE12=Fool That I Am
TTITLE13=Do I Make Myself Clear
TTITLE14=Lovin' Arms
TTITLE15=I Got You Babe
TTITLE16=842-3089 (Call My Name)
TTITLE17=Spoonful
TTITLE18=Out On The Street Again
TTITLE19=Security
TTITLE20=You Got It
TTITLE21=Tighten Up Your Own Thing
TTITLE22=Light My Fire
TTITLE23=In The Basement Part One
TTITLE24=These Foolish Things (Remind Me Of You)
EXTD=
EXTT0=
EXTT1=
EXTT2=
EXTT3=
EXTT4=
EXTT5=
EXTT6=
EXTT7=
EXTT8=
EXTT9=
EXTT10=
EXTT11=
EXTT12=
EXTT13=
EXTT14=
EXTT15=
EXTT16=
EXTT17=
EXTT18=
EXTT19=
EXTT20=
EXTT21=
EXTT22=
EXTT23=
EXTT24=
PLAYORDER=
